<mxfile host="app.diagrams.net" modified="2023-11-08T15:41:34.883Z" agent="Mozilla/5.0 (Macintosh; Intel Mac OS X 10_15_7) AppleWebKit/537.36 (KHTML, like Gecko) Chrome/119.0.0.0 Safari/537.36" etag="ODnH5CsUfoOfanEo2ps0" version="22.0.8" type="device">
  <diagram name="Page-1" id="AdmXf_NF1PwVWq4S_XDC">
    <mxGraphModel dx="1825" dy="644" grid="1" gridSize="10" guides="1" tooltips="1" connect="1" arrows="1" fold="1" page="1" pageScale="1" pageWidth="850" pageHeight="1100" math="0" shadow="0">
      <root>
        <mxCell id="0" />
        <mxCell id="1" parent="0" />
        <mxCell id="ZK-K1FI_Y1AUGJ2wDH0m-1" value="" style="group" parent="1" vertex="1" connectable="0">
          <mxGeometry x="30" y="141" width="280" height="173" as="geometry" />
        </mxCell>
        <mxCell id="ZK-K1FI_Y1AUGJ2wDH0m-2" value="" style="endArrow=classic;html=1;rounded=0;" parent="ZK-K1FI_Y1AUGJ2wDH0m-1" edge="1">
          <mxGeometry width="50" height="50" relative="1" as="geometry">
            <mxPoint x="127" y="134" as="sourcePoint" />
            <mxPoint x="157" y="104" as="targetPoint" />
          </mxGeometry>
        </mxCell>
        <mxCell id="ZK-K1FI_Y1AUGJ2wDH0m-3" value="" style="endArrow=classic;html=1;rounded=0;" parent="ZK-K1FI_Y1AUGJ2wDH0m-1" edge="1">
          <mxGeometry width="50" height="50" relative="1" as="geometry">
            <mxPoint x="50" y="50" as="sourcePoint" />
            <mxPoint x="80" y="20" as="targetPoint" />
          </mxGeometry>
        </mxCell>
        <mxCell id="ZK-K1FI_Y1AUGJ2wDH0m-4" value="" style="group" parent="ZK-K1FI_Y1AUGJ2wDH0m-1" vertex="1" connectable="0">
          <mxGeometry y="-70" width="280" height="243" as="geometry" />
        </mxCell>
        <mxCell id="ZK-K1FI_Y1AUGJ2wDH0m-5" value="x-y" style="ellipse;whiteSpace=wrap;html=1;aspect=fixed;fillColor=#f8cecc;strokeColor=#b85450;strokeWidth=2;dashed=1;" parent="ZK-K1FI_Y1AUGJ2wDH0m-4" vertex="1">
          <mxGeometry x="83.5" y="-44" width="113" height="113" as="geometry" />
        </mxCell>
        <mxCell id="ZK-K1FI_Y1AUGJ2wDH0m-6" value="" style="whiteSpace=wrap;html=1;aspect=fixed;fillColor=#f8cecc;strokeColor=#b85450;dashed=1;" parent="ZK-K1FI_Y1AUGJ2wDH0m-4" vertex="1">
          <mxGeometry y="130" width="110" height="110" as="geometry" />
        </mxCell>
        <mxCell id="ZK-K1FI_Y1AUGJ2wDH0m-7" value="" style="endArrow=classic;html=1;rounded=0;" parent="ZK-K1FI_Y1AUGJ2wDH0m-4" edge="1">
          <mxGeometry width="50" height="50" relative="1" as="geometry">
            <mxPoint y="240" as="sourcePoint" />
            <mxPoint as="targetPoint" />
          </mxGeometry>
        </mxCell>
        <mxCell id="ZK-K1FI_Y1AUGJ2wDH0m-8" value="" style="endArrow=classic;html=1;rounded=0;" parent="ZK-K1FI_Y1AUGJ2wDH0m-4" edge="1">
          <mxGeometry width="50" height="50" relative="1" as="geometry">
            <mxPoint y="240" as="sourcePoint" />
            <mxPoint x="280" y="240" as="targetPoint" />
          </mxGeometry>
        </mxCell>
        <mxCell id="ZK-K1FI_Y1AUGJ2wDH0m-9" value="" style="curved=1;endArrow=none;html=1;rounded=0;endFill=0;strokeWidth=2;strokeColor=#009900;" parent="ZK-K1FI_Y1AUGJ2wDH0m-4" edge="1">
          <mxGeometry width="50" height="50" relative="1" as="geometry">
            <mxPoint x="10" y="60" as="sourcePoint" />
            <mxPoint x="240" y="220" as="targetPoint" />
            <Array as="points">
              <mxPoint x="60" y="180" />
              <mxPoint x="150" y="220" />
            </Array>
          </mxGeometry>
        </mxCell>
        <mxCell id="ZK-K1FI_Y1AUGJ2wDH0m-10" value="" style="curved=1;endArrow=none;html=1;rounded=0;endFill=0;strokeColor=#FF3333;strokeWidth=2;dashed=1;" parent="ZK-K1FI_Y1AUGJ2wDH0m-4" edge="1">
          <mxGeometry width="50" height="50" relative="1" as="geometry">
            <mxPoint x="57" y="27" as="sourcePoint" />
            <mxPoint x="287" y="187" as="targetPoint" />
            <Array as="points">
              <mxPoint x="107" y="147" />
              <mxPoint x="197" y="187" />
            </Array>
          </mxGeometry>
        </mxCell>
        <mxCell id="ZK-K1FI_Y1AUGJ2wDH0m-11" value="(x1,y1)" style="text;html=1;strokeColor=none;fillColor=none;align=center;verticalAlign=middle;whiteSpace=wrap;rounded=0;" parent="ZK-K1FI_Y1AUGJ2wDH0m-4" vertex="1">
          <mxGeometry x="110" y="99" width="60" height="30" as="geometry" />
        </mxCell>
        <mxCell id="ZK-K1FI_Y1AUGJ2wDH0m-13" value="(x0,y0)" style="text;html=1;strokeColor=none;fillColor=none;align=center;verticalAlign=middle;whiteSpace=wrap;rounded=0;" parent="ZK-K1FI_Y1AUGJ2wDH0m-4" vertex="1">
          <mxGeometry x="56" y="143" width="60" height="30" as="geometry" />
        </mxCell>
        <mxCell id="ZK-K1FI_Y1AUGJ2wDH0m-14" value="" style="rounded=0;whiteSpace=wrap;html=1;fillColor=#d5e8d4;strokeColor=#82b366;dashed=1;" parent="ZK-K1FI_Y1AUGJ2wDH0m-4" vertex="1">
          <mxGeometry y="170" width="70" height="70" as="geometry" />
        </mxCell>
        <mxCell id="ZK-K1FI_Y1AUGJ2wDH0m-15" value="x-y" style="ellipse;whiteSpace=wrap;html=1;aspect=fixed;fillColor=#d5e8d4;strokeColor=#82b366;strokeWidth=2;" parent="ZK-K1FI_Y1AUGJ2wDH0m-4" vertex="1">
          <mxGeometry x="91.5" y="-41" width="85" height="85" as="geometry" />
        </mxCell>
        <mxCell id="ZK-K1FI_Y1AUGJ2wDH0m-16" value="&lt;font style=&quot;font-size: 17px;&quot;&gt;x&lt;/font&gt;" style="text;html=1;strokeColor=none;fillColor=none;align=center;verticalAlign=middle;whiteSpace=wrap;rounded=0;" parent="1" vertex="1">
          <mxGeometry x="280" y="320" width="60" height="30" as="geometry" />
        </mxCell>
        <mxCell id="ZK-K1FI_Y1AUGJ2wDH0m-18" value="&lt;font style=&quot;font-size: 17px;&quot;&gt;y&lt;/font&gt;" style="text;html=1;strokeColor=none;fillColor=none;align=center;verticalAlign=middle;whiteSpace=wrap;rounded=0;" parent="1" vertex="1">
          <mxGeometry x="-20" y="50" width="60" height="30" as="geometry" />
        </mxCell>
        <mxCell id="ZK-K1FI_Y1AUGJ2wDH0m-20" value="" style="shape=image;verticalLabelPosition=bottom;labelBackgroundColor=default;verticalAlign=top;aspect=fixed;imageAspect=0;image=data:image/png,iVBORw0KGgoAAAANSUhEUgAAAcIAAACoCAYAAABzAO7NAAABWGlDQ1BJQ0MgUHJvZmlsZQAAKJF1kM0rRGEUxn/jo5mYDGVJTUlZDMmIsWQINeU2PmKUunPnS82M152LlKU9FlayYuUfICt2FnZKKXtrKSkzXefOYAY5dTq/np73dN4H6jy6UtkGIJe3zOjkmH9xKeZ3P9GMmzZaaNONghrVtIhY+Jo/6/UelzPvep1doe74wd7NWezkuXjoOdrV/vp/VFMiWTBkFqX7DWVa4AoIa1uWcnhHuN2Uo4T3HU5X+NTheIUvyp65aFj4VrjVyOgJ4UfhQLxGT9dwLrthfN7gXO9N5udnnT3SHWhMEcHPAMMMMUGIhX/8g2V/mDUU25iskiaDJW9HRVFkSQpPk8egj0B5Z7900Mn5d35VTc3AyCbU6VVtZRzOu8C3XtV65D++FFwvK93Uv1N1vTYUUsGBCntNaHyz7ZdOcF9CybTt92PbLkmG9Q9wtf4BkuZhduEIQHQAAAYeZVhJZk1NACoAAAAIAAQBGgAFAAAAAQAAAD4BGwAFAAAAAQAAAEYBKAADAAAAAQACAACHaQAEAAAAAQAAAE4AAAAAAAAAkAAAAAEAAACQAAAAAQADkoYABwAABaYAAAB4oAIABAAAAAEAAAHCoAMABAAAAAEAAACoAAAAAEFTQ0lJAAAAQUFBRmNuamFiVlJkYkJ0RkVONjlkZHZFYmVMTFQ5czAvYnVTQzZRcExZNFRhSEJwaVpNMFRXamkvdGhPbk1TSgpXWi9YempYbk8vZHVuY1MxalBZQkZZUUFpYWZTUGdCSmhLQUlRVUZRSVNSQUNNS2ZVQVJKQkVnSVVKLzZnbmpnCkJhRUtpVDJmVlZxVTNidTluZG1ablcrK0dWMGlxNmtXOVhyWG9JQmNHelp1Y2tmbEdXSmFxcUdQeXRoVXBsUXUKaFdWcVpLT3lrVGhIRkdyVkFuanhsYmpvQ1laT2tqeEpCc3BHMzFkVWhrM0RvQXkrTGU3YnZLWDUzdnRhOXJjZQp1UC9nb1FjZVBQSklWKzlqSjgrY0hSdWZ4Q1IxTHBPbHVZaXM1elJ0dGFyYUl6YktJOEhRb1dtU3Q4YjR0eHhrCldGWTBiRmxYYTJycjZyZHUyOTZ3Z3drTU1SZmJ3RGF5VGF5Q1ZUTDMxWjI3ZHUvWksrMjdwNGx0Wmx0WU5mT3cKR3RiSWRyTGRiQStUb2dsc0VVM1ZTVVF4Tk1NTVo0d2tpVkNWYWlTYU5Rbk9KRFF5a2NGcFhVMnBDcVk4M1hBUwpVOExUU21CbE9tMGFPVDNaWXp1T1dVYk9WRWlZek5FbVVCNnIzamFQcjcwakVneWRQZEVkQzRaS2hxRXNWa2lmClYrSVRpSkJWclR4MHVQUGhNU2NOSFdkSTFOa1NhNlRzc05EcGp3WkRwMHI1aXNLSzUraXhSMGM1QVJZMVZUM04KeE5QOGdrQjNpZWVoSE1VY2I2aDBzaGpvc2YwY1lmVzRwKzlFLzhCdG1ZTUpVTDVMNUNpeFdDM2J3ZXJpNGtvcwphU2k1RE5GcENjRjRtemRMSndyWXBLcWlrYUk3bHJNSXh6Nk4wMlNjYjIyczFrU2h4RnBSYXVhYXBKUXlUUDdxClZDcHA3L1FvNEl4bDVUTUpicG5CZE1yNi81bXRYTzlzUEVkVG5STUZWYzl5cExyaUJFcmxOSWthRXMxbmlaUlUKVGM2TGx1Y2JySmdxeHlvcFU5akVDdVhkNmJZYlp6QjRlbjZJMWMrZllsdFp3M0F3MU1jQnJvWENFYy93U0hTVQp5eUgxQXVIRXBQbzBuTGE0SE9TSk5YVzFPQ1VVUmJhTmJSOGVNblNzR0p6cDJFVDVob1dZbjR2eHh6bVR2YXBpCk53WTI4d3R4VzVsUTRtTHRIUVFuSGM0WGt2NTE5VTFkUGlmV1N0b3pwZG85VGxXT0lMQlVmTDdlOS9VMXRvdGYKT2EzeHNMMjg4UmFtL1haWDZlMGRmVzBTbjRCVjJiVTkzei9BOWpwVnZDekhZbTQ1Um5rakpsS0ZpSzVhc3pncgp6Zmo4UlZtS25jL2hwRFFYTDNpTHJYbDdsWTVLZy9aMzBpZXQ2OVYrbDFkYnNiVzBPbDV0WlMvK1BMSHVjSXlrClkwNEl0OHp6bUptTmkzVzNHL1UvNGhabjRuNVFBV3BBSTVEQmZ1QURoOEVBR0FSblFBak1naUo0RWp3TExvR1gKd092Z0RmQW1lQXRjQSsrQzk4QjE4QUg0RUh3T3ZnQmZnVy9BdDJBWmZBZFd3QnI0QWZ3RWJvQ2I0SGZ3SjdnRgpLMkUxbE9BQjJBR1B3QUFNd2dnY2dhTndFcXJRaEJkZ0VWNkVUOFBuNENWNEdWNkJMOE4zNFB2d1k3Z0VsK0hQCjhCZjRHN3doWEJjK0VqNFJQaFUrRTVhRUw0Vmw0VWZoVitHbThJZndsL0MzY0V2NEI3bFFKUkpSSFdwQXphZ0YKSFVUZDZEZ2FRd3FhUWxtVVJ3WEUwRlBvR2ZRQ2VoRmRRZk5vRWIyS1huUDF1UHBkazA3UkJWaitXY3lCdTRZcgo4Uy9VcGNRQkH1ZcAAAAAJcEhZcwAAFiUAABYlAUlSJPAAAAiTaVRYdFhNTDpjb20uYWRvYmUueG1wAAAAAAA8eDp4bXBtZXRhIHhtbG5zOng9ImFkb2JlOm5zOm1ldGEvIiB4OnhtcHRrPSJYTVAgQ29yZSA2LjAuMCI+CiAgIDxyZGY6UkRGIHhtbG5zOnJkZj0iaHR0cDovL3d3dy53My5vcmcvMTk5OS8wMi8yMi1yZGYtc3ludGF4LW5zIyI+CiAgICAgIDxyZGY6RGVzY3JpcHRpb24gcmRmOmFib3V0PSIiCiAgICAgICAgICAgIHhtbG5zOnRpZmY9Imh0dHA6Ly9ucy5hZG9iZS5jb20vdGlmZi8xLjAvIgogICAgICAgICAgICB4bWxuczpleGlmPSJodHRwOi8vbnMuYWRvYmUuY29tL2V4aWYvMS4wLyI+CiAgICAgICAgIDx0aWZmOllSZXNvbHV0aW9uPjE0NDwvdGlmZjpZUmVzb2x1dGlvbj4KICAgICAgICAgPHRpZmY6WFJlc29sdXRpb24+MTQ0PC90aWZmOlhSZXNvbHV0aW9uPgogICAgICAgICA8dGlmZjpSZXNvbHV0aW9uVW5pdD4yPC90aWZmOlJlc29sdXRpb25Vbml0PgogICAgICAgICA8ZXhpZjpQaXhlbFlEaW1lbnNpb24+MTY4PC9leGlmOlBpeGVsWURpbWVuc2lvbj4KICAgICAgICAgPGV4aWY6VXNlckNvbW1lbnQ+QUFBRmNuamFiVlJkYkJ0RkVONjlkZHZFYmVMTFQ5czAvYnVTQzZRcExZNFRhSEJwaVpNMFRXamkvdGhPbk1TSiYjeEE7V1ovWHpqWG5PL2R1bmNTMWpQWUJGWVFBaWFmU1BnQkpoS0FJUVVGUUlTUkFDTUtmVUFSSkJFZ0lVSi82Z25qZyYjeEE7QmFFS2lUMmZWVnFVM2J1OW5kbVpuVysrR1YwaXE2a1c5WHJYb0lCY0d6WnVja2ZsR1dKYXFxR1B5dGhVcGxRdSYjeEE7aFdWcVpLT3lrVGhIRkdyVkFuanhsYmpvQ1laT2tqeEpCc3BHMzFkVWhrM0RvQXkrTGU3YnZLWDUzdnRhOXJjZSYjeEE7dVAvZ29RY2VQUEpJVis5ako4K2NIUnVmeENSMUxwT2x1WWlzNXpSdHRhcmFJemJLSThIUW9XbVN0OGI0dHh4ayYjeEE7V0ZZMGJGbFhhMnJyNnJkdTI5Nndnd2tNTVJmYndEYXlUYXlDVlRMMzFaMjdkdS9aSysyN3A0bHRabHRZTmZPdyYjeEE7R3RiSWRyTGRiQStUb2dsc0VVM1ZTVVF4Tk1NTVo0d2tpVkNWYWlTYU5Rbk9KRFF5a2NGcFhVMnBDcVk4M1hBUyYjeEE7VThMVFNtQmxPbTBhT1QzWll6dU9XVWJPVkVpWXpORW1VQjZyM2phUHI3MGpFZ3lkUGRFZEM0WktocUVzVmtpZiYjeEE7VitJVGlKQlZyVHgwdVBQaE1TY05IV2RJMU5rU2E2VHNzTkRwandaRHAwcjVpc0tLNStpeFIwYzVBUlkxVlQzTiYjeEE7eE5QOGdrQjNpZWVoSE1VY2I2aDBzaGpvc2YwY1lmVzRwKzlFLzhCdG1ZTUpVTDVMNUNpeFdDM2J3ZXJpNGtvcyYjeEE7YVNpNURORnBDY0Y0bXpkTEp3cllwS3Fpa2FJN2xyTUl4ejZOMDJTY2IyMnMxa1NoeEZwUmF1YWFwSlF5VFA3cSYjeEE7VkNwcDcvUW80SXhsNVRNSmJwbkJkTXI2LzVtdFhPOXNQRWRUblJNRlZjOXlwTHJpQkVybE5Ja2FFczFuaVpSVSYjeEE7VGM2TGx1Y2JySmdxeHlvcFU5akVDdVhkNmJZYlp6QjRlbjZJMWMrZllsdFp3M0F3MU1jQnJvWENFYy93U0hTVSYjeEE7eXlIMUF1SEVwUG8wbkxhNEhPU0pOWFcxT0NVVVJiYU5iUjhlTW5Tc0dKenAyRVQ1aG9XWW40dnh4em1UdmFwaSYjeEE7TndZMjh3dHhXNWxRNG1MdEhRUW5IYzRYa3Y1MTlVMWRQaWZXU3RvenBkbzlUbFdPSUxCVWZMN2U5L1UxdG90ZiYjeEE7T2EzeHNMMjg4UmFtL1haWDZlMGRmVzBTbjRCVjJiVTkzei9BOWpwVnZDekhZbTQ1Um5rakpsS0ZpSzVhc3pnciYjeEE7emZqOFJWbUtuYy9ocERRWEwzaUxyWGw3bFk1S2cvWjMwaWV0NjlWK2wxZGJzYlcwT2w1dFpTLytQTEh1Y0l5ayYjeEE7WTA0SXQ4enptSm1OaTNXM0cvVS80aFpuNG41UUFXcEFJNURCZnVBRGg4RUFHQVJuUUFqTWdpSjRFandMTG9HWCYjeEE7d092Z0RmQW1lQXRjQSsrQzk4QjE4QUg0RUh3T3ZnQmZnVy9BdDJBWmZBZFd3QnI0QWZ3RWJvQ2I0SGZ3SjdnRiYjeEE7SzJFMWxPQUIyQUdQd0FBTXdnZ2NnYU53RXFyUWhCZGdFVjZFVDhQbjRDVjRHVjZCTDhOMzRQdndZN2dFbCtIUCYjeEE7OEJmNEc3d2hYQmMrRWo0UlBoVStFNWFFTDRWbDRVZmhWK0dtOElmd2wvQzNjRXY0QjdsUUpSSlJIV3BBemFnRiYjeEE7SFVUZDZEZ2FRd3FhUWxtVVJ3WEUwRlBvR2ZRQ2VoRmRRZk5vRWIyS1huUDF1UHBkazA3UkJWaitXY3lCdTRZciYjeEE7OFMvVXBjUUI8L2V4aWY6VXNlckNvbW1lbnQ+CiAgICAgICAgIDxleGlmOlBpeGVsWERpbWVuc2lvbj40NTA8L2V4aWY6UGl4ZWxYRGltZW5zaW9uPgogICAgICA8L3JkZjpEZXNjcmlwdGlvbj4KICAgPC9yZGY6UkRGPgo8L3g6eG1wbWV0YT4KjAHN/wAANrRJREFUeAHtnQm8XdPZ/xsZzFMIGQwJYorWGPOQCNqgtDEPpYaqoqKKKq8hQWkQRIrS1hDVfxV9X6VVU0KIsTQR85BECBKzJCLU+/990/3kXV3W3uece88599x7n+fz+WVNz3rWWr+99nrW2nufm699zcUZcAacAWfAGXAGnAFnwBlwBpwBZ8AZcAacAWfAGXAGnIHWzMAgdf5m4QXhQ2GycJMwQHBxBpwBZ8AZcAbaNAO/1ujmCdcLhwuHCX8S/jfDVQo7CC7OgDPgDDgDzkCbY+AYjWiusHliZEOVZ85wRKLcs5wBZ8AZcAacgVbPAI9A3xa+nRgJp8AnBJzhB0JH4StS6VER/UW+YqWxM/qqe0OE3o3dTe+dM+AMOAPOQIUMLC79LwUcHQ4xJecp006F/WMFHNrdwnzhY+F9YZYwU3gnA/F3BTzpbOEL4QQhJacqkw6h955gtgixMUegnKNqveRcNfSicKswRfijkNwRKN/FGXAGnAFnoD4MPKhmOMW9Lrws4MT+KUwUnhdeE94Q0OGDlzz5VAXPZYWP5Sh9HuR3DeILop3074pC5wwLMpvxD7Y4MS6ZIc8UevWQjdTI6VFD+yp9u/D7KN+T7ZeBbhr64cIGwhrCasJsYVqGhxTeLHwmuDgDzkB1GBgnMxxOVhIGCosKJnzx+ahAyL14n1AkW6pwTWFSjtKmWf6/FD6b0llemTgmAw3bEdLCa4Jy9DiKpgQH2F3gUeQA4SUBG5OF7YRVBBadJYR6yBFqxMYQhufXo3Fvo+EZWEo9vFKYK4TzIxXnycjZgj9NEAkuzkCVGcDp2X03XfHlqmgff4QDxP6ocu3yCNQ6ZGHZlaNGeByJjRuj/HolB6ghG0MY8gjXpX0zsJiGP1awefGM4j8RdhMOEa4WeA1g5RaOUd4igosz4AxUhwEORjxtsXvs8uqYXWCFp52PZLZnKFx2QW4Z/7QlR9hF4+WxlhFMyLvPlQWX9s0AN1s4L/ZL0LGD8njXHeoRv05wcQacgeowMEhmwntsSHXMLrBi9/mrSq1Vid225AgZ99LCEQKn0l8IPQUXZ4D3f+HNx+lv9QQtP4r0rM42CV3PcgacgcoZOEdV7L7iY8oVKjeRrHFuZvdJhRUfftqaI0wy5JntmgEcnt14Ycgj0Vg6KYP3g6Ee8ctiRU87A85AkxgYr1p2f+V97FKpYb4DweYYgdcgheLvOgrp8cI2ygA/5eEnQ7F8EmcozUkx9ZUZX5e6NCYDLHy8FnFpfAb48HLzoJvjgnhToyNU8RThJOF7wjzBZIIi/S1hIbvdlpR+anxtga/3QrAgXSSYoLOpsI7Ai9WpAl+kjhX4GiglqypzE8Hs8kUrceqzm39LyJOvq2BbYSOBl6v8BoXfWD6ZYV+FKwnHCsiiAh9Z8MIX0tHvKHAzGiYqTpuDhdkCCzGLLJsRdLh5uR63CSYbKtJHmCug30Gg/9i/WwilqxJ8gkydXgITDPuzhHeER4WHhTy+VLSgPo8l4Mn4Is64eMxAXzcXuBY9BB5jPCP8U3hFYAdWLeEl9+4CY6V9xo99OKIMvhjbBCGUfkr0FYwzrgNcwPk4AZkj3CwcTCKTKQrvs0QUol+JrCZl5t7zwouVVGwgXebTugKcPyEwl0JZUYkNBO4LNgpF80rFdRPm72sCc2NtgTlaDeErRsY7U3ipGgbdxgIGtta/rH8m4yzSxPBi1TtaGCL8T2SDXzRsJXwY5SeT9Xw0epV6wI0Ww24qnMAtApM51iE9WYDIlByjzFQd8rZLVVAezg3ywnrc6LYIh/nElxSQPYW4LE7/WDq9S+h9qvJQRigR27E0N7zJCYqkrpvpWsjicJhVSoTTlGe6YThD+T8R3swpR/cTYbTAglEN2VlGwj6k4rcmGjq7oF74BAQHCRdXCIcKSwt5gkOL2z8nR/lY5eO8Tf9+xXHErUWWUkfHCDg+GwPz5kyhg7CMcJNgZYRvCLsLjSD91AnrW7Xm4qmyyQbX7D6mOBuFPDlDBTjLI/IUPH8hA8MVM15Z58N1baFSmZFLM1vM3+MCsPaeJNwucB07CiUltaCOKlkrrcBCxSBvTBd/7SzlvyzEjgZHyITmBEX9sQKL1g7C7wXyDOikJvz+ymc3Hk5gq5NyhD2ly24PHWzS3vICwgK6pmBEmx1bPLdV2YPCE4KVhSFl6HQXiAPGGOpMUpoFJhSc+TNCqDtdaW7EZQVkXyG0Q3wjgQn1dYFJ8KEQ6lyo9CJCLPcp43Uh1I3jE1TOpDpU+JXwsRDqvKP0ZkJzpb8MGFehY7G2xqucscVypDKmCKbHzfWC8IiQGrOyC2V9lZqtMNwtUauH8uK5TJ1TErqNmMWcYW5xDX8gML+5V94TGMdpAo6da36wsIpgmyPWjbIWGOnVUriP6esXQlOud9y37yuDOXSGAB+PC9j/jZASax+dh1MKnvcfDHCPwxVgDWyqjFJFs1MUTiy3gXo6QuvToMQgXlEek/lgU8pCJiOPqsLB/izSCZMbRLrU2z5UyOKXBHpHJMot66JAj76EwkIwTQj7NlXp1A15R6T3Y6XzZKwKsEkdduWhcKIJ2yO+daigOI4xdKboFLV3gcpjmx8p77tCLBsrwzYsVudt5fWOFZuRvkF1zbaFuxTY6xPoF42zwMTCIpy9tWkhm4H4OlDhmwld6oyhsMGF8YwXZgnrRH0dqbSNndA2Adx3YX63qF6tkweqgVuEcL53VhrHxRwMhflyuzA4zCwRX1PlbKQvC/S49oz51SAvjNIn4+SqsKAOcdaZM4XRNcKxVR7D4rL3mWB84cyaIkuoEtfc7BSFfyi3gZZwhGvlDOL0nE4/Felfn6NH9lKRLiSlHCGLgBF4guJ5sp4KTG/JhBJ9tnILbeEI1Y+L9J4NC4M43NhF3jbIt+gwRawdCze0wiC8LdK7KyiLozxjN1sWfitWCtL7JPT/EpQ3N7qBDBgH1p/7C4yyEKA3VegkNFU2U0U2Y9YmISegNYSU9FVmqGtx+tPocqg6SH9TG4z/ysooHyeYXKSIjbE5u3mzV2nISZ/2uUZnCrbhfFfxiQLSRcCR2/y5l8wy5XLpsR6y0CLLCDhG2sxzhFdn5ejsL9RTmJfxhteuTzXCubK/WBUHtKNshf0aUkXbzTbVEo5wtYgQyJki2MSOB3V3pI8Ty5OlVBCSTXy7hHLoXJlM1wp7CHYThFUuVOKXYUYQ7674fCFsM+UU/h7p5PWLtih7RkgJu9YZgrV3i+Kp00rsMHkfmTepU46Qx3550lEFrwnWB0I4xIlXS+6QodA+8f4J4ysqjxuW8uacBpk3cB62OU1pNkJF8mcVhnXmKL1uUYUGKWOsj+X05Qbl25gODXRWUPwC4WQB3lOyijKvFJ4WeESP82JXzpOE5gqOZrpgfXtAcdp7VmCN4GQb3tcvKT1IKEdwoB8LPHExYezW1o2WGYW0YTqsBbHUkg/a4unPzjUCfFZThsuYccVGhfnUMNIojpCbJU/+qgIjkJDn9nlSriNkwoc2Lc77KW4s+sPCurJQSm6WgtUnxCng7E3CU16od5MpZCGO6l0BneOyvFTAyZQbfM1UYZZXiXOrRNeavFyRcCzET7LCKoRsXmL7tyTsmsOfpbLUJiZR5StZnCLvFML2HlJ6pa9ofjWDa3aQcL1wsbC20OhCn+cJg3M6+rzyjYteOTqp7G2VOUd4QzhKYBNxoIDDZeE7UWiu4LCOEF4W6ON7WUh8dhafrJB2OwrlSh8pct9uGlS4V3HjYZcg36I9g3I4i6UefMRtNnL6QXXO+GyJJwqF3DSKIyxaRGvhCPuLlfB5tV2gOOTGvkjgMUmeDFRBXO+cQJn6lL8v4GhNl/a7CSbfU4Qybuii9ky/gyI4WR4xDBM4nbBJeFX4SLB2LMw75TXFEZ6csM/mopoyQcas74QsVDyONGFDYAvhWZZZYQiHvxOsHRZsTuWdhbYseU6C+QgH8IGzKVe6SpFrwfwOrxH12VC8JWAT51ANof8HCOE9/K7S3Atc06YIGyKTVRRhvtHnd4QUXzhbmzecgkOpNx9h240YX1ydCq/VqAo6yb34W2GNCupUrMribBfTwtEVW/l3BdtBjSlRf7VEm4cX1KmFI6S5vYSZgo27KLxHeuGNouR/CI+AwvozlEaf3Tc3KGXHC3/M4qZ7itImtvBfYxk5IQ7tfGG6YHYsxAE+JOAMLc9C6qWkKY7wABkyuxbekTLejLw9E21cHdgbmpWzcWjKYxYWzKsyG4yBe2F3IZS1lPi+sEmY2Ybj3BN2PUvNw5CGs7N6PB1JyQ+Vid2bUoVNyOPkxsbP+kqIE75e6Cc0V2xuYTd2cmabuWjt72eZWXh2VlYvPqLmGy65Y8aH8cWGpVw5SIrUW6/cCk3RezZrxDpIeF1TDKmO7c6Hl6jfKI6QbnLy+oWQciohJ8TPE/KED25i/b2Vd0iWP0fhcsLALG26ryjNgrxhkF+06GKPdy9Wn5Cd1gXC5kJHAbGFJ9SrpiM8Sm2EtomzCFVT4OU5IWyHR3rdBTYZ07KySxU2RS5XJbP9lOJ9EkbOzHRYdNuDsAk2Tg6uYMA8iaDe6Tl1tszKmaucOpsq26ji3wTrI3HuoSeFR7P8LxX+t7CZ0FQZp4rWxsAcIy8FOitHOvXiI2q2YZPDAq64PpVsXB+W/tM5I1tF+Vdm5ayLLwh/EArfSbN4xPKaMtaPMlloKhWOrV2zSpMqrdwC+kuoTcbJ+E/LsLpCCOwv7CbgnELZU4m8G/16leFQeQRgwklrqSzBxeFCjRW4WOsKyJrCzoLtkJ5QnEU5JYOVea2wSFA4QfHDhReDvHpEud6x5PU71is3zUI0QmDMJosqcoIwWVhN+EIYKVQql6jCcVmlGxSycZiXpcOAuYCw2BZJBxXS39Yug4IBjAviRdHFVLhRppDHE04D6SLsINxCokK5Qvo/yurMV/hzgev4ssBGk76fI/CUhXsVMFcuEyoRrqU50ZmKP5Co3FN5fbP85xW+E+jUi4+OapPN+UpB29WMMi5eE1RDBgRGuHc5NJUjnPy3Fn6aUN5WeX8XPhCGC+MF1u+hwj+Ek4Sy1wYWUW7gEJ8qvaRQiRwpZbNhEySvPguY6VpIP/LkryowPcLH8xSVj+MJdYlvl9DHBmV7Jcosq48iOBqz96Xiy1hhIrw20LU6FtqNRTUulOUT3id8kuUV8fBoVO9dpVcQUsIiH7ZBvEdKUXlHV6BrJm5N1NneCqsYdpat6VFbHyk9Ncu7QWGlgnOFj38JqRvM7PVWZLaALhyl5BvKfFhgYX5GOEZorcLibnOGR+spGaRMNnKhbKGE1ds5LAjiXEfTMWcWFJcVtXuW9lnwTD5WJOwTfZwh0N7tQqXCfW99/VtO5QMDHRx0KPXio7caZSNofa12yJqEU2+uYINNpvVvVJkGObg9KTDG7lGdrkrjTD8X+kZlbAzeEmgPZ1mWLC6tWYJ10kIudLmynhRZnKiLhy4ljeAIuXHoL062SFZRoXHCwsmJJE82V4HphiGnvFCWU2KuEOoQZ2ezhJASdtIstmEdnFGe4CBCXeKVOELGnSe9VMBmKbT/ttKVbp7y7Mf5J0ZtWbtsTPrFyiXS50W2WDBjzFQeJwxrh3AnIRauVeyk0f1urNhg6Y7qz17CD4RwPh+mtI35OsVT8ogyn4oK9lDa6g2MysKk6ZwVZlYQZ8H7vhDeI6xf2OXeCYWF8hAhb86HunF8V2VYXy+NC7P01YHOPpFOvfig2XWErWuE1WmgCsKcMD4Jh5Rp87SsXmozcnZWdnOOrR9m5TfllCezv6VcFvmwsyxs5RDRU3ovZXXZQZRTp5EcIWMeLOQJi77xkrdLDutyJDd9C1OnvN8l9C4LDUVxFi/bbJjdcZGOJVkc3hRMz0LGkpKjlWk6Fp6eUszyror0cUjMoVoJp/z3BeubhX+psMGzEzbMVqmwd6Kt7XLsXZPQbaSsO4N+nxJ07J4g/6dBvkW3z8qPsIws3DfLh0N08uRzFaAzMk+hCfm9VceuHZvFaghz2WyemjDIho/10XRWinRako+oKw2RHBZwxVqxQolecRKkDidBOD5AiOVxZVCWt05tmZV/prCbULawGM4X7OISsviQzwkmFnZnLIjzBHQZ4FFCkSyrQhxnfyFshzi7fspY9BDIIA3uF0L9p7P8lRWaLK0IuvQr1CW+X1ZmtpVc8CjF9HAwB5EZCTvP8GQVLhqR6sLkkYqZXcK8U16KA07WRXKbCkPbxNn5hMJO+AEh1iM9XOAEtbwQCtc4T79zoMg1GSFwrUP9vF1zULXZ0XOjNmm/7Mce0j0tUT8cQ1Gcm4mNSCxbKSNV79pYsYHSPdSX8Ppx3yEDhHAsF5MZyKqKvy48JnQI8onuI1jdAWTkiLV7ZU55U7I3ViVru3tTDCTq9Als3hiVM/Y/BOXPRuUkW5KPRHdaNIv7ZqJg12hSid5wPZljpv+x4mzsQ1lMifkCOqztKWEdNBt7pxSK8licnw8MmCEWgheF8cJkwd6bWDl52wilBMdpdfJCnByykZCnE+ZvsUD73y+Nw/xU/GeZLsELQqzzsvL+JFwgjBHCUxULA46glLBb/FAw25cVVOD5t+mNK9CzopUVeU6wOhZOUN4ogb5/mpWfrJC2TScOudlN8hwhdaYKo4XrhFeE0M5Mpdn8LCLUWth129jow0MVNLiadMN+Vxpn7qeETcI0Iba3V0q5QfLYjNpOG8cGr1sLMwSeZticmaJ4NwHZVeDaM/d6CbEMVoZxsFNcmKVxIKZzUY5OU7JZaG8WftuUygV1blcZ/X1PWD/T66vw74KNg5B7I5aW5CPuS0ukv61GRwhXCE8JIV/wSdn5AdC7RZgqhLrEfyfEsoUyTG/nuDBLc2+azo9ydAqzmbA7CHQAb2zG4pCyR4VTBRotR66UEp6cuu8KbwtvCbMEnAcLHc4I6S3MFeYInEzfEbhZCSETZ8wNPUhAhgqhbewC2vlE+Fw4TDDB4VL/YuFYIeUY6c+9wneESmSYlOGLPvYpqLi3yv4l0A9unnJkMSntK9wpMKb4ukxW3iECglNm0k0UPhJM9wPFVxZMUo5wExVeLcCd1SOE+4eF8wUW1XrKaWqMPjDubSpoePWsXjiOSuJwnSfrqeDPAvN0mjBUaHQ5Xh3kfmPecU/BxViBObG4cIlA2TyB600598GKQkrWUabx+d2UgvKYK6ZzTI5OI2Uvqs6Myvr8pcIPsvhLCrnONhbu4VjaIh/xGIvSd6nQ+GlOyPq7RaKhPQL7AxPllmVtn2UZTQ07qCI3B4vit4XDhV2EVYTWLt01gN7RIHh2vbGwudBP4GZoqmCfRaWULC8FFommCCexlYRvZFimKUZUJ+UIewS2iG8q0FZLSy91YLmW7kQbaJ+5s5nApmkDgXs9lLWU2E84UKC8SKhrDnNojiL3ky1M3GOtRfqooyy8BwvrC10ENhGMhQ390kIsbZmPeKwtkeYgYHNp+4IO2EFhZIGOFzkDCxko5QgXKnrEGchh4A7lszhdmlO+e1bOEwYeZzaqsNE6UThMwKHFwsbAFmFOjHnSVvjIG19L5u+jxu0aDCjoCCd59K4s0PEiZ2AhA+4IF1LhkSYywCNRFp1pQsrRjcnKRytsVOmpjnHKs0XWXrtYf3lCNCUrZ5Fd2woSYVvgIzGshsjiNZJdo3q/k24IArwTtWHAHWFteG1PVjk92SnoIsXD09SeSvOYaqrQCI/X1Y2kHKRcW2AJ48duJwflpyQt/F9mW+Dj/0bTWLH2/g62sa5GG+hNb42Bd0FnCOECYIsAZd0EF2egHAaWkNL1Ah+A8REO8TsFTk8ThKITlIpbXMJ3TzeoN7xHNdlfkfkC98ZvLLNE2Nr5KDG8Fitmk9FW30m3GKntueFpGnzsAON00XuQ9sydjz2fgb4q4l3a6cKRwlZCaxBOq7zD5Kvo1bIOb6jwfAHnzqn2AqHcr+SlukBaKx/W/0YM7elDa38n3Yjctrs+Pa8Rvyu8KUwVXhFeFXCQbwkfCKUeAUnFxRloMwzsqJE8K3CKZf6zMZwn3CfgFF0agwF/B9sY18F74Qw4A22YAX4itpewmdClDY+ztQ6Nx6N2Kmyt76RbK/feb2fAGXAGnIEGYaDJ72Dxoi7OgDPgDDgDzkBbYYB3sP2FPsI7Ao+2HxFcnAFnwBlwBpwBZ8AZcAacAWfAGXAGnAFnwBlwBpwBZ8AZcAacAWfAGXAGnAFnoG0zwJ/Eu1l4QeAPo08WbhIGCC7OgDPgDDgDzkCbZuDXGh2/97xeOFw4TPiTYH8g5CrF/WNRkeDiDDgDzoAz0PYYOEZDmitsnhjaUOWZMxyRKPcsZ8AZcAacAWeg1TPAI9C3Bf7P3Fg4BT4h4Az5S0EL/2eUSo+H6Id/fFbJhhd+VzJE6N3wPfUOOgPOgDPgDDSVAf7zc/4cHo4Oh5iS85Rpp0J+b7jAod2tkL+izv+79b4wS5gp8ENEQJy/P4n3nC18IZwgpORUZdIJ9Phr4GaLEBtzBMo5ntZLzlVDLwq3ClOEPwoLdwGKuzgDzoAz4Ay0LAMPqnlOca8LLws4sX8KEwX+BvJrwhsCOnzwkiefquC5rPCxHCX+WLpJVyKdhBWFzhkUNEuwxYlxyQx5xtCrh2ykRviL96Hsq8Ttwu/DTI+3awZ4wrG3wFdma2ZgwzY9AzfWdQJ/eNzFGXAGqs/AOJnkoLKSMFBYVDDhi89HBcLZAn/wvEi2VCH38aQcpU2zfP4HEf7qzAJZXv/imAw0ZsdGC68JytFbXEgJDrC70FcYILwkYGOysJ3AH67tJiwh1EOOUCM2hjA8vx6NexutgoFd1Et2nOH8SMV5anKjsKzg4gw4A7VjAKdn9yCb0eWq2BS+CQeI/VFFdnkEap2wsLBCgTEeR2KDBaQlZIAatTGEIY9wXZwB/l88HqUwN+YJxwu9BJ5qrC6MFMJ5Q3yCsJTg4gw4A9VngEPSZ4Ldd5dXsYnOssXfHMX2DKFwU9uWHGEXDfahbOBGLO89VxZcnIFposDmBbvEXROUjA10THdYQs+znAFnoPkMDJIJu88IhzTf5EILOFVsviqstTA3J9KWHCFDXFrgESmn0l8IPQUXZ2BtURDecMRfTtDy84TehISeZzkDzkDzGThHJuy+5D39Cs03ucDCuZndJxWWdRBqa46wSjy6mTbGgP2P1nbTWRi///6Jxm1lFs5oY1z4cJyBRmFgvDpi91nexy6V9pVvQrA5RlgsVZmv5VycgfbIwD8Sg35YebwzDIWTYyz/jDM83VAMsNh1aageeWfKYYBN6OaB4rgg3tToCFU8RThJ+J7AtwAmPNlZ8DvCTpbTQmE/tctCw8cHIT5R+iLBBJ1NhXUEXqZOFfgidazAu52UrKrMTQSzyxetxKl/mfCWkCdfV8G2wkYCL1Q/F/iN5ZMZ9lXIZ77HCsiiwm4CL3khGv2OAjejYaLitDlYmC3wFSK/yWQzgg43L9fjNsFkQ0X6CHMF9PmIg/5j/24hlK5KDBSo00tgUmF/lvCOwJdYLPR5fKloQX0eRcCT8UWccfFogb5uLnAtegg8unhGwDG8IrDrqpbwYnt3gbHSPuPHPhxRBl+MbYIQSj8l+grGGdcBLuB8nGDyuiJnCGcL6HwsnCPEskOcofS4RF6YtZoSzL3nhRfDglYUZz6tK8D5EwJzKZQVldhA4L7gE/SieaXiugnz9zWBubG2wBytprRWXqrJQa1sbS3DXQLj44J4U6IXq9LRwhDhfyID3ZXeSvgwyl+YrOej0avUKjdaDLupcAK3CEzmWIf0ZAHyUnKMMlN1yNsuVUF5ODcIC+txo9siHOYTX1JA9hTisjj9Y+n0LqEXn0ZGFOhzw5ucoEjqusV9YHE4zColwmnKi+uQniH8RHgzpxydT4TRwnJCNWRnGUn1Jcy7NdHQ2QX1Uk9Alpb+ekJ4Ayq5QA7Vv2F7xFn0ccJ5cqwKcN5W737FccStRdj4jBFwfDYG5s2ZQgdhGeEmwcoI3xDYtDSC9FMnrG/VmouMq7Xz0gjXplQfhkvBrh1rfrjGlaobl1+a2WIuHxeAdfgk4XaBQwub4KSkFtRRSc3SmSxUDOzGHNWzlP+yEDsaHCETmhMU9ccKLOA7CL8XyDOgk5rw+yuf3TiDNV0LU46wp/RmZrrYpL3lBYQFdE3ByDU7LKLItsKDwhOClYUhZeh0F4gDxhjqTFKaBSYUnPkzQqg7XenHhGUFZF8htEN8I4FJ9HWBC/+hEOpcqPQiQiz3KeN1IdSN4xNUzkQ6VPiV8LEQ6ryj9GZCc4VHFsZV6FisrfEqZ2yxHKmMKYLpcUO9IDwipMas7KRw8n1PMDuErwrrC3nSQwXxXKbeKXkVGiyfOcPc4hr+QFha2E4wHk5THMfONT9YWEWwzRHrRu6iorJ6CfcxnH8hVHK9i/rXFngpGl+jlHG/2/3GethUGaWKZqconFjUQD0dofVjUKLjryiPyXywKWUhN+ccIRzgzyKdMLlBpEu97UOFLH5JoHdEotyyLgr06EsoLATxqWqq8lI35B3KD8fwY6XzZKwK0KUOu/JQrlAitEN861BBcRxj6EzRKWrvApXHNj9S3neFWDZWhm1YrM7byusdKzYjfYPqmm0Ldymw1yfQLxpnaIKNxUiBtp4UQr5wbtcLywlF8k0VWv/CcExRpQYpY16NF2YJ60R9gpdwPLtl5dx3YX63qF6tkweqgVuEcL53VprND3MwFObL7cLgMLOMeGvkhWGx5pwpjK4RjpXdasriMvaZYPMJZ9YUWUKVuP5mpyj8Q1EDLeEI18rp+Ok5HX0q0meRypOlVBCTkXKELAKmd0KeMeWvF+gtmdCjz2bHQls4QvXjIr1nw8IgDjd2YbcN8i06TBFrx8INrTAIb4v07grK4ujRkS52vxUrBel9Evp/CcqbG91ABowDG+P9BUa5+dGbKnQSyhEWSrMdhzyyZtHvWsJQ3xwb9KfR5VB1kHGnNhj/lZVRPk4wuUgR42qSZdYx5KRP+2yYzxRsw/mu4rbb76I4jtzmz72KVyKHSpk2WhMvjG8NIdzM2XWqVjhX9hejoSrJjrIT9m1Ilew22UxLOMLVIhIgZIpgEzsezN2RPk4sT5ZSQUgwcR73xBI6VybQtcIeAjuMWC5Uxi/jzCzN409OEGGbKafw90gnr1+0RdkzQkrWVOYMwdq7RXF2sbHEDpPFPW8ipxwhj/3ypKMKXhOsD4RwiBOvlnAaDu0T758wvqLyuEkpL/c0iBnmGv3l0ScbDjY0/xDCNrELj0XyZxWGdeYovW5RhQYpY349ltOXG5RvYzo00FlB8QuEkwV4LxI2jb8WZgqc2qoh+8vIdMH69oDiqwjPCqwRnGzD+/olpQcJlUiteaEvA4VXhVNIVFF4ErRzjRA/NWhut4fLgF1HNi3MrRaVRnGERcfWv4ohI43w8QLGynWEV0Q2zT7vp7ix6A8L68pCKblZClafEKeAszcJT3mh3k2mkIU4Kna36ByX5aUCFhlu8DVThVleJc6tEl1r8nJFwrEQP8kKqxBul7CP04/FHP4sFSwRF1aYhtenhXhcLOgdcmxxzQ4SrhcuFtYWGl3o8zxhcE5Hn1e+cdArRyeVvY8yTxRwpB8KZmMZxaslXWToCOFlAfvvZSHx2Vl8ssIDhY5CJVIrXnhycKRwnvCEYLyMVLy9yoMauPHQEk8XvsJ7ozjCokW0Fo6wv5j4LLgYdlHicI50LhKKbmZ2eHG9c5RnQn3K3xdwtKZL+90Ek+8pQhk3dFF7ps/ijJPlscIwgdMJmwR2m7zjs3Ys7KG8lDTFEZ4sQ2bXQjYX1ZQJMma2CdlgsKiY4LhsITzLMpsZphwwbe/dTLuNVj3PSTAf2aEzZpxNJTJOylyz0QKLPjZAOXNZahUJ/T9ACO/hd5XmXuC+aKrUgpf91JmnhDuFoYJtNEYq3h5lcQ06vG6jKiChs3R/K6xRQZ2yVN+Xlk1YC5nITRGex2NjTInKnJasLQsPL6hTC0dIc3sJMwXrQ1F4j/Q6CXli7y/Mxgwpos8ukxuU/OOFP2Zx0ztFaRNb+K+xjJwQh3a+MF0wOxbiAB8ScIaWZyH1UtIUR3iADJldC+9IGW9G3p6JNq4O7LGo0PZsoZxHKyxyGwhFJ8cuKv9UsDFZmPcYUaptSrgnbMyl5mHRwHcK7CxTpNjEsk1Vj42f9ZXwc+F6oZ9QbakWL/SL+5P+tldHuGM2frt2bF7KlYOkSL31yq1Qrt6zmWHrFOF15VaO9Gx3PjzKj5ON4gjpFzfpL4SUUwk5Ic4uN0/44CbW31t5h2T5cxQuJwzM0qb7itLsYDcM8jdRPE+wFz52wg67qwuEzQUWe+SHgrVhYTUd4VEJ+yxC1RR4eU6w/hPySK+7wCZjmkDepUIpOUMKMwT0WTBxonnymgrCNonD8SJ5FdpQPptgG/vBzRhXrRzhNurT34I+EuceelJ4NMv/UuF/C5sJ1ZJq8UJ/2rsjHCYObI5xrcrZxMIb8rDw9IJY/j88Kfq1wCGHE+RXhMUjFm769aNMFppKZQ1V6JpVmlRp5RbQ51TAOBn/aRlWV8jPA/oLuwk4p1D2VOL0MCOI4wRwqBz7TThpLZUleOeIAxsrvCCsKyBrCjsLtit6QvGnhJQMVua1QrggT1D6cOFFoZ7C9Y4lr9+xXrlpbpYRAmM2WVSRE4TJwmrCF0KpnfUO0hkumHAf4Dx50vCyZQYhNmPpogxusE/igiyN06a/rV0GBQMYF8QbIXqFOvGjrCPzFf5cuETgGrLRpO/nCKcI3KuAuXKZ0FxpZF4YW0eBjfpKJGogPM69sEp2BwR2uI85QJUjPAXYWvhpQnkf5a0qbCTsISwrIKzHny+IlfiHRZQbOASPhrjpK5EjpWw2+paoyAJmuhbSjzxhwTI9wsfzFJWP4wl1iW+X0McGZXslyiyrjyI4GrP3peLLWGEivDbQtToWhrvToZHefUqzwKJbxIPteM3mu9JfQUjJcco0PQt7pBSVh8M2HQvzdM3ErYk621thFUN2dNOjtnj8OzXLu0FhKTlJCjauMDwsp+KbCf0pObrfUP7DAgvzM8IxQmuVnuq48fNqziBwCGzkSslOUjBbRfdMKTthud2ztM+G1eRjRcI+0ccZAu3fLjRXqskLfXlIoG8jSVRJessOGzjjvNoh69NiQnMFG/ME69+oMg2yeX1SYIzdE3XGKY+1erRwnmD2k3MPY7FwUvmlsGJQQGfZTd0U5BVF11PhxZnC3QpTu+yi+i1RZgQdocZZ1FMyRZn7CizECOR+tiCW/udKZX8/UcQFBCacHs8X2K0gO/47WHBi/H9ZPA66KGOTKPMBpfN2U5tHupUmOxZU6KWyXaPyd5T+R5RXjSS7uUsEm1/Y5NoBrgdzt5S8naPwViJ/ZeWx8MXCST2WJZRxp7BKVrCBwl8J2P1zlteIAdf2O0JXgY2EzelvKm4y3iJReK7Sc6O8eiUPUkPbCDcL1gfuoaUFrpsJG0uuxe7CPZZZRthaeWFoU4V+Qt7GWEXNEjaHOLDmylYysGhgZFwQL4qeosJNhbuE1P08QPkmOylymiUqCb8l5X8J5kUJaWx1oZSwaLwkUIddQzl1GuFE+ELWZ/o9WMiTXipAB+TtksO6OAPTtzB1yvtdQq/oEQ43KSchs0k4TkgJi0PqVMNYUnK0MkO7xE9PKWZ5V0X6nJSZQ7WSpWT4fSHu41/KbJA5Gtd9Xnmppx7HJnTnKy+1sdguoUs71wiNLDhv44MFxuQeRSz/p5YZhJz4KT8iyMuLshiZLdt05uk2J7930A6bxeZIPXihfw8JcDOSRDuTYRqvzQvWjRVKjL+Tyqljp90DSuhT3Ky5x2LIDW+dJGTxIX85IZa+ymBBnCegy6COEopkWRWyKPUXwnaIn5iVseghEIAuuF8I9Z/O8sNdILtCdOlXqEt8v6zMbCu54FGK6eFgDiIzEnb87JhNL1w0ItWFySMDfep9IGAnlhQH68VKUfo2pa0vFv4w0mGXz0nRysNwuPLZNS4vhJJyhNRDv3OgyDUZIXCtQ7uXBjq1ip4btUn721bQGH0M+3yM0uHYMLWlMFcI9Yj/TEgJu9tYl/S1KeUGyeuhfoTXj/sOGSCEYwlP4JSvKrwuPCZ0EErJTlIwe7V0hBsH7XQv1amC8nrxQhceEuCmvTlCNvMTs7Ez/klCkXBtmW82jz5WnE1+KWn23GNxZqdsDVv4mfJeFMYLk4XZgpURkreNUEpwnGG9VBwnh2wkpMrjvC0WaP/nc+FYx9LhgvZCwv7LyvuTcIEwRnhTsLosDJ2EUsIp40PB6l1WUOHJQG9cgZ4VrazIc4LZtnCC8kYJ9P3TrPxkhbRtOnHYR2UmeY6QOlOF0cJ1witCaGem0mx+FhFqLSupARsbfWAxqURYvK8WQifwttJ3CL8XuPbh2IhzHU8S8hZ+HOk0Ia63l/IaVdiM2u4axwavWwszBJ5m2JyZong3AdlV4Noz93oJ5UizF6NyGpEOi+vNwm/L1M9TqxcvtM/cZc60B0f4bY1zhHCF8JQQ3ivvZWXnKzSgd4swVQh1if9OKEeqMve46XcQaBQPHHfG0pQ9KpwqsCCUI1dKab5A3XcFFqK3hFkCiw4LHQsS0luYK8wR3hfeEbhZCSFwtsANPUhAhgqhbewC2vlE+Fw4TDDB4VL/YuFYIeUY6c+9wneESmSYlOGJPvYpqLi3yv4l0I/BBXph0WJK7CvcKTAmux4WTlbeIQKCU2YSThQ+EkznA8VXFkyOVsTKLNxEeTgOuLM8Qrh/WDhfYPGop5ymxugD496miQ2vr3rXCWzuwnFZHEc5TfiVYI5A0VxZTyV/Fpin1BsqNLocrw5yvzHvuKcY+1iBObG4cIlA2TyB600598GKQrlSlcWo3MaqpFcPXuhqe3KEd2m8dm81J2Qt3gLyypCSc69DGUZCFfRXEnplYGF4Q3guCxW0WumunuNUpgYj4Hn1agKOnYXtFYEFsymCfZwPF7BIllchiy+6lQonMRYn2kKmCmwyKhUc4ZVRpZ5Ks5FAegikpwszhZYU5iLXhoW8OcJJAltrCFxzbL4kcM1LXTOptHph7rDZYWPATv1ZgYXKZC1FNhXgaZLABqsSYTG6J6vAhqkp87KS9qqlW2te6OdDwjYCG44TBZfqMtBa5151WXBrFTOQOhHi/FycgaYywGJkJ4BlmmqkjdbDEcLNyDY6vpYeVsm5x27HxRlwBpyBWjMQrjWVPomqdd9a2r5x47y00JXo1ELterPOgDPQ9hlYS0PkUT8nwO8LJjz+u0/g8TOP23kv2Z6Ed/XrCLyK6S3wOBrZWdhD4HXDfOFpIXw8raSLM+AM1JqB3mqAxesMwR5jWbh9VtZNoYszUA4DvBOcJ/C+2z6Ge1txPrjhoysW+9OE9ia8D+Tjo9nC+wIf/LEhsI8E+SiQMt7HujSfgZKPRpvfhFtoSwxM02DM8eWFo9rSgH0szoAz0OYZKOkIO7V5CnyAlTDATpTdOl/Gfi6wa+W9BfOki8CjnDcEF2fAGXAGWgsD9g6W/ibfw7ojbC2Xsj795DdwLs6AM+AMtHYG1tIA/P10a7+K3n9nwBlwBpyBJjPg76ebTJ1XdAacAWfAGXAGnAFnwBlwBpwBZ8AZcAacAWfAGXAGnAFnwBlwBpwBZ8AZcAacAWfAGXAGnAFnwBlwBpwBZ8AZcAacAWfAGXAGnAFnwBlwBpwBZ8AZcAacAWfAGXAGnAFnwBlwBpwBZ8AZcAacAWfAGXAGnAFnwBlwBpwBZ8AZcAacAWfAGXAGnAFnwBlwBpwBZ8AZcAacAWfAGXAGnAFnwBlwBpwBZ8AZcAacAWfAGXAGnAFnwBlwBpwBZ8AZcAacAWfAGXAGnAFnwBlwBpwBZ8AZcAacAWfAGXAGnAFnwBlwBpwBZ8AZcAacAWfAGXAGnAFnwBlwBpwBZ8AZcAacAWfAGXAGnAFnwBlwBpwBZ8AZcAacAWfAGXAGnAFnwBlwBpwBZ8AZcAacAWfAGXAGnAFnwBlwBpwBZ8AZcAacAWfAGXAGnAFnwBlwBpwBZ8AZcAacAWfAGXAGnAFnwBlwBpwBZ8AZcAacAWfAGXAGnAFnwBlwBpwBZ8AZcAacAWfAGXAGnAFnwBlwBpwBZ8AZcAacAWfAGXAGnAFnwBlwBpwBZ8AZcAacAWfAGXAGnAFnwBlwBpwBZ8AZcAacAWfAGXAGnAFnwBlwBpwBZ8AZcAacAWfAGXAGnAFnwBlwBpwBZ8AZcAacAWfAGXAGnAFnwBlwBpwBZ8AZcAacAWfAGXAGnAFnwBlwBpwBZ8AZcAacAWfAGXAGnAFnwBlwBpwBZ8AZcAacAWfAGXAGnAFnwBlwBpwBZ8AZcAacAWfAGXAGnAFnwBlwBpwBZ8AZcAacAWfAGXAGnAFnwBlwBpwBZ8AZcAacAWfAGXAGnAFnwBlwBpwBZ8AZaI8MdGiPg/YxOwPOwH8w8KBSawvzhc8yfKGQ9aGLsGgWdlJ4v3Cg4FI+A85v+Vy1iCYT28UZcAbaNwPjNPwpwkrCQAHHZ/KhIo8KhLOF+wSXyhgYJ3XntzLOXNsZcAacgRZjAKf3vxmmK1yuxXrSNht2ftvmdfVROQPOQBthYAmNg0ej5ggvbyPjapRhOL+NciWifiwSpT3pDDgD7ZeBrTR03gmajLWIh1VhwPmtCo3VN+KOsPqcukVnoLUyMCDoOKfCB4J0o0VXVIfuEUYKvRqtczn9GRDkNzq/QVc96gw4A85A+2FgvIZqj0UnNfiwV1X/+HiH/vI49zcCX742srQmfhuZR++bM+AMOAM1YWBxWQ3fD46qSSvVNbq+zN0gfC7gEP8l/EnYVGg0aY38NhqH3h9nwBlwBmrKwCBZt9Mg4ZCatlZd471lbrQwV7Ax3K04PwVpFGnN/DYKh94PZ8AZcAZqysBwWTcn8qXiK9S0tdoY53eQvxD4zaON5THFvyPwxwFaUtoCvy3Jn7ftDDgDzkDNGXhQLZjzaPT3g6XIWEYKpwpvB2N6TvFDhc5CS0hb4rcl+PM2nQFnwBmoKQNt9f3VYmLtGOE1wZz8NMWPF/hNX72krfJbL/68HWfAGXAGas7AjmrBHAVha3o/WA45/CnJg4RnBBvnLMX/S1heqLW0dX5rzZ/bdwacAWeg5gwMVwvmIKr9fnBJ2f61MFNoqceSanqB8J7w28IEwcb7ieIXCj2FWkkt+F1Fnb1SeFrgnegLwh+EjQUXZ8AZcAacgQoZeFD65hiq8X5wH9k7UbhBCD9c4d1do8gO6shdgo2bn45cLawlVFuqze+26uAc4Q3hKGE9gf8RhA+D2MjAvYsz4Aw4A85AmQw05/0VJ7zfCmtEbY1TmlMXP2k4TzBn00iOUN1aIJyg+As11sf3FecUWy2pNr9d1bH3BH472TfqJF/NviUwFpylizPgDDgDzkAZDOwoHXMChEPKqGMqvHejDieSPNlJBWa/0RxhD/VthPBx0MexincUqiXV5vdsdQw+b87p4A+z8ptyyj3bGXAGnAFnIGJgmNLmqCp9P/iw6vKOqkga0RGuqQ5fJcwTbOx/V3ygUG2pNr+Pq4P0+fScjm6ZlfOot1uOjmc7A86AM+AMBAw8oLg5g0lBfqkof8aMeieWUGwkR/gN9ZWT0hcCfbc/ybaJ4rWSavLLz0HmC/R9v5wOd83K0dk7R8eznQFnwBlwBjIGWFjDU9GoMpnpJL0nBRxK9xJ1GsER8r7sTgHnADgt/UZYW6ilVJvfLdRZG8POOR3vHOj8KEfHs50BZ8AZcAYyBngUaAsr4ZAymTktq/e3MvRb0hHuqv6Nz/rK+PipxMVCL6EeUm1+91Cn7XphO09M56w8Bc93BpwBZ8AZ+DcDwxTYolnO+0FOgtSxR4sH/NtM4b/1doR86LK/8E/Bxvau4mcKPDasp1Sb333VeRvT9gUD4YtS9EYW6HiRM+AMOAPtngEcxkTBFtZJJRjhZwaPBfofK85PA0pJvRzhourIUcIrgo3pdcWHCtX8OYTMlSW14JffZ9rYBhT0gk0Nevzg3qUMBtjhuTgDzkD7YIC/qrKdsJTA14V8PGLC40J+SsAHJCbLKsJv0zYTVrfMLLxF4adRXkskl1aj/GTgRKFH1oEXFDKWGwVOR/WSWvM7OxhI3trdQToA4Uf3Ls6AM+AMOAMBA3cpbieK5oQ4wC0Cu0XRWp0IOXGdIbwv2Fj4acEQYRGhJaTW/K6jQdlYv5szQDYvpnNMjo5nOwPOgDPgDNSRgVo5Qh7V2oJ/r+KD6jimlmqKk957AuPmkW9K+inTeIEjlzIYyDtel1HVVZwBZ8AZaDEG+BjmB8JE4YkW60V9G8bBPSLsJvTJadryeYxa6r1vjgnPdgacAWfAGagmA7vImJ1QeGzn0jwGeCQKn9MEHg/HMkYZlI+OCzztDDgDzoAzUD8G1lJT/QUeV/KXXMwRDlOcz/75qzQ9BZfKGeigKncIcHqRQNpkT0X4OGiqwEdOLs6AM+AMOAMtxMA9anee8JHAb/jezsD7LX7Uzp8J40f5Lk1jYAlVu17gC98ZWZy/nMPPJiYIawsuFTAQ7iYqqOaqzoAz4Aw4Ay3MQF+1z8m7j/CO8KzAO0QXZ8AZcAacAWfAGXAGymfg/wNkjyDbRfnwCwAAAABJRU5ErkJggg==;" parent="1" vertex="1">
          <mxGeometry x="50" y="340" width="187.5" height="70" as="geometry" />
        </mxCell>
      </root>
    </mxGraphModel>
  </diagram>
</mxfile>
